<svg xmlns="http://www.w3.org/2000/svg" viewBox="0 0 64 40" width="64" height="40">
  <defs>
    <linearGradient id="logoGrad" x1="0%" y1="0%" x2="100%" y2="100%">
      <stop offset="0%" stop-color="#f0c178"/>
      <stop offset="100%" stop-color="#d97b29"/>
    </linearGradient>
  </defs>
  <path
    d="M6 26 L10 26 C10.5 21 14.5 17.5 19 17.5 C22 17.5 24.7 19 26.3 21.3 L40 19 C42.5 16 46.5 14.5 50 15.5 C54 16.5 57 19.5 58 23.5 L58 26 L54 26 C53.7 23 51.2 20.7 48 20.7 C44.8 20.7 42.3 23 42 26 L24 26 C23.7 23 21.2 20.7 18 20.7 C14.8 20.7 12.3 23 12 26 Z"
    fill="none" stroke="url(#logoGrad)" stroke-width="2.2" stroke-linejoin="round" stroke-linecap="round"
  />
  <circle cx="18" cy="27.5" r="4" fill="none" stroke="url(#logoGrad)" stroke-width="2.2"/>
  <circle cx="48" cy="27.5" r="4" fill="none" stroke="url(#logoGrad)" stroke-width="2.2"/>
  <path d="M27 21.5 L29 17.8 L38.5 17 L40.5 19.3" fill="none" stroke="url(#logoGrad)" stroke-width="2" stroke-linejoin="round" stroke-linecap="round"/>
</svg>
